<svg width="310" height="130" viewBox="0 0 310 130" fill="none" xmlns="http://www.w3.org/2000/svg">
<g clip-path="url(#clip0)">
<rect width="310" height="130" fill="white"/>
<path d="M101.594 98.8906H85.8906V126.312H57.6875V98.8906H6.51562V77.1719L56.75 9.67188H85.8906V77.9531H101.594V98.8906ZM57.6875 77.9531V38.3438L28.2344 77.9531H57.6875ZM200.656 67.7969C200.656 77.849 199.849 86.651 198.234 94.2031C196.62 101.755 194.042 108.057 190.5 113.109C186.958 118.161 182.349 121.99 176.672 124.594C170.995 127.146 164.042 128.422 155.812 128.422C147.635 128.422 140.708 127.146 135.031 124.594C129.354 121.99 124.719 118.109 121.125 112.953C117.583 107.849 115.005 101.573 113.391 94.125C111.776 86.625 110.969 77.875 110.969 67.875C110.969 57.5625 111.75 48.7604 113.312 41.4688C114.927 34.1771 117.583 27.901 121.281 22.6406C124.927 17.4844 129.615 13.6562 135.344 11.1562C141.073 8.60417 147.896 7.32812 155.812 7.32812C164.198 7.32812 171.177 8.65625 176.75 11.3125C182.375 13.9167 186.984 17.8229 190.578 23.0312C194.12 28.1354 196.672 34.4375 198.234 41.9375C199.849 49.4375 200.656 58.0573 200.656 67.7969ZM171.359 67.7969C171.359 53.4219 170.161 43.3438 167.766 37.5625C165.422 31.7292 161.438 28.8125 155.812 28.8125C150.24 28.8125 146.255 31.7292 143.859 37.5625C141.464 43.3438 140.266 53.474 140.266 67.9531C140.266 82.1198 141.464 92.1719 143.859 98.1094C146.255 103.995 150.24 106.938 155.812 106.938C161.385 106.938 165.37 103.995 167.766 98.1094C170.161 92.1719 171.359 82.0677 171.359 67.7969ZM305.344 98.8906H289.641V126.312H261.438V98.8906H210.266V77.1719L260.5 9.67188H289.641V77.9531H305.344V98.8906ZM261.438 77.9531V38.3438L231.984 77.9531H261.438Z" fill="#5983A2"/>
</g>
<defs>
<clipPath id="clip0">
<rect width="310" height="130" fill="white"/>
</clipPath>
</defs>
</svg>
