<svg width="260" height="100" viewBox="0 0 260 100" fill="none" xmlns="http://www.w3.org/2000/svg">
<rect width="260" height="100" rx="3" fill="#EDEEF0"/>
<path d="M61.8906 35.5625H67.7695V64H61.8906V45.1133L50.5039 64H44.6445V35.5625H50.5039V54.4883L61.8906 35.5625Z" fill="#5682A3"/>
<path d="M89.7969 64H84.1328V55.875H77.1211V64H71.4766V42.8672H77.1211V51.3438H84.1328V42.8672H89.7969V64ZM101.453 56.207H99.1875V64H93.543V42.8672H99.1875V50.8164H101.199L105.809 42.8672H112.938L106.023 52.9258L113.582 64H106.062L101.453 56.207ZM133.09 42.8672V64H127.445V47.4375H122.465L122.113 53.9609C121.892 57.4375 121.208 59.9701 120.062 61.5586C118.917 63.1471 117.211 63.9609 114.945 64H113.031L112.973 59.4102L113.676 59.3516C114.691 59.2734 115.434 58.6745 115.902 57.5547C116.371 56.4349 116.664 54.5273 116.781 51.832L117.172 42.8672H133.09ZM149.18 42.8672H154.824V64H149.18V50.9531L142.109 64H136.445V42.8672H142.109V55.8945L149.18 42.8672ZM167.867 64.3906C164.768 64.3906 162.242 63.4401 160.289 61.5391C158.349 59.638 157.379 57.1055 157.379 53.9414V53.3945C157.379 51.2721 157.789 49.3776 158.609 47.7109C159.43 46.0312 160.589 44.7422 162.086 43.8438C163.596 42.9323 165.315 42.4766 167.242 42.4766C170.133 42.4766 172.405 43.388 174.059 45.2109C175.725 47.0339 176.559 49.6185 176.559 52.9648V55.2695H163.102C163.284 56.6497 163.831 57.7565 164.742 58.5898C165.667 59.4232 166.832 59.8398 168.238 59.8398C170.413 59.8398 172.112 59.0521 173.336 57.4766L176.109 60.582C175.263 61.7799 174.117 62.7174 172.672 63.3945C171.227 64.0586 169.625 64.3906 167.867 64.3906ZM167.223 47.0469C166.103 47.0469 165.191 47.4245 164.488 48.1797C163.798 48.9349 163.355 50.0156 163.16 51.4219H171.012V50.9727C170.986 49.7227 170.647 48.7591 169.996 48.082C169.345 47.3919 168.421 47.0469 167.223 47.0469ZM197.102 64H191.438V55.875H184.426V64H178.781V42.8672H184.426V51.3438H191.438V42.8672H197.102V64ZM218.016 47.3984H211.238V64H205.574V47.3984H198.914V42.8672H218.016V47.3984Z" fill="black"/>
</svg>
