<?xml version="1.0" encoding="iso-8859-1"?>
<!-- Generator: Adobe Illustrator 21.0.0, SVG Export Plug-In . SVG Version: 6.00 Build 0)  -->
<svg version="1.1" id="Capa_1" xmlns="http://www.w3.org/2000/svg" xmlns:xlink="http://www.w3.org/1999/xlink" x="0px" y="0px"
	 viewBox="-49 141 512 512" style="enable-background:new -49 141 512 512;" xml:space="preserve">
<path style="fill:#E5E1DA;" d="M346.027,198.997l-99.428,26.642l52.965,3.091c7.206,0,13.101,5.896,13.101,13.101
	c0,169.424,0,241.6,0,338.465c19.016-17.086,19.752-20.435,26.24-21.192c2.012-0.315,4.107-0.168,6.12,0.502l25.549,8.499
	c1.534,0.51,3.139,0.548,4.646,0.189c1.484-0.442,2.854-1.278,3.925-2.485l17.876-20.135c3.46-3.896,8.908-5.356,13.852-3.712
	c26.036,8.343,25.904,9.335,29.417,8.837C430.957,515.963,397.883,392.526,346.027,198.997z"/>
<path style="fill:#DBD7D1;" d="M334.001,225.64c-31.155,0-59.836,0-87.402,0h-0.001l52.965,3.091
	c7.206,0,13.101,5.896,13.101,13.101c0,169.424,0,241.6,0,338.465c19.016-17.086,19.752-20.435,26.24-21.192
	c2.012-0.315,4.107-0.168,6.12,0.502l2.076,0.69c0-94.767,0-218.58,0-271.563V238.74C347.102,231.535,341.207,225.64,334.001,225.64
	z"/>
<path style="fill:#666666;" d="M245.569,227.7l100.458-28.703l-12.939-48.288c-1.865-6.959-9.085-11.129-16.045-9.263
	C236.07,163.142,13.571,221.694,6.13,227.7C12.663,227.7,239.193,227.7,245.569,227.7z"/>
<path style="fill:#F9F6ED;" d="M-26.292,285.642c0,115.199,0,206.181,0,321.825l0,0c0,6.361,0,37.538,0,45.516
	c1.329,0.064,3.128-0.381,4.624-1.367c22.223-14.519,21.578-14.532,24.203-15.561c4.079-2.14,9.039-1.931,12.94,0.642
	c22.695,14.466,22.79,16.186,27.061,16.304c4.269-0.116,4.368-1.839,27.069-16.305c2.669-1.76,5.835-2.416,8.874-1.97
	c5.438,0.582,6.803,3.253,28.261,16.89c2.7,1.779,6.005,1.833,8.786,0c25.021-16.457,24.318-16.621,28.814-16.939
	c2.871-0.299,5.819,0.364,8.33,2.02c22.686,14.461,22.79,16.186,27.061,16.304c4.27-0.117,4.367-1.839,27.069-16.305
	c4.664-3.075,10.633-2.554,14.656,0.099c22.524,14.351,22.645,16.088,26.918,16.206c4.267-0.118,4.375-1.844,26.914-16.206
	c4.35-2.868,9.991-2.868,14.34,0c22.99,14.797,22.605,15.721,26.128,16.149c0-78.363,0-293.359,0-367.302H-26.292z"/>
<circle style="fill:#F94A46;" cx="33.682" cy="352.434" r="16.216"/>
<path style="fill:#EA3B3B;" d="M33.679,352.433c-2.999-5.195-2.784-11.353,0.007-16.203c-2.759-0.004-5.554,0.681-8.115,2.16
	c-7.756,4.478-10.413,14.395-5.935,22.151c4.478,7.756,14.395,10.413,22.151,5.935c2.561-1.478,4.552-3.557,5.928-5.948
	C42.119,360.52,36.678,357.628,33.679,352.433z"/>
<circle style="fill:#FFB70D;" cx="33.682" cy="421.706" r="16.216"/>
<path style="fill:#F99F10;" d="M33.679,421.708c-2.999-5.195-2.784-11.353,0.007-16.203c-2.759-0.004-5.554,0.681-8.115,2.16
	c-7.756,4.478-10.413,14.395-5.935,22.151c4.478,7.756,14.395,10.413,22.151,5.935c2.561-1.478,4.552-3.557,5.928-5.948
	C42.119,429.796,36.678,426.903,33.679,421.708z"/>
<circle style="fill:#92B620;" cx="33.682" cy="490.987" r="16.216"/>
<path style="fill:#81AA04;" d="M33.679,490.983c-2.999-5.195-2.784-11.353,0.007-16.203c-2.759-0.004-5.554,0.681-8.115,2.16
	c-7.756,4.478-10.413,14.395-5.935,22.151c4.478,7.756,14.395,10.413,22.151,5.935c2.561-1.478,4.552-3.557,5.928-5.948
	C42.119,499.07,36.678,496.178,33.679,490.983z"/>
<circle style="fill:#70B5E8;" cx="33.682" cy="560.258" r="16.216"/>
<path style="fill:#52A5D8;" d="M33.679,560.258c-2.999-5.195-2.784-11.353,0.007-16.203c-2.759-0.004-5.554,0.681-8.115,2.16
	c-7.756,4.478-10.413,14.395-5.935,22.151c4.478,7.756,14.395,10.413,22.151,5.935c2.561-1.478,4.552-3.557,5.928-5.948
	C42.119,568.345,36.678,565.453,33.679,560.258z"/>
<path style="fill:#EFECE4;" d="M5.055,607.467c0-115.644,0-206.626,0-321.825l0,0h-31.347c0,115.199,0,206.181,0,321.825
	c0,6.361,0,37.538,0,45.516c1.329,0.064,3.128-0.381,4.624-1.367c22.223-14.519,21.578-14.532,24.203-15.561
	c0.808-0.424,1.657-0.729,2.519-0.968C5.055,623.838,5.055,611.254,5.055,607.467z"/>
<g>
	<path style="fill:#E2D9C7;" d="M259.711,359.129H86.63c-4.267,0-7.727-3.459-7.727-7.727c0-4.268,3.459-7.727,7.727-7.727h173.081
		c4.267,0,7.727,3.459,7.727,7.727C267.437,355.67,263.978,359.129,259.711,359.129z"/>
	<path style="fill:#E2D9C7;" d="M259.711,567.985H86.63c-4.267,0-7.727-3.459-7.727-7.727s3.459-7.727,7.727-7.727h173.081
		c4.267,0,7.727,3.459,7.727,7.727S263.978,567.985,259.711,567.985z"/>
	<path style="fill:#E2D9C7;" d="M259.711,498.367H86.63c-4.267,0-7.727-3.459-7.727-7.727s3.459-7.727,7.727-7.727h173.081
		c4.267,0,7.727,3.459,7.727,7.727S263.978,498.367,259.711,498.367z"/>
	<path style="fill:#E2D9C7;" d="M259.711,428.748H86.63c-4.267,0-7.727-3.459-7.727-7.727c0-4.268,3.459-7.727,7.727-7.727h173.081
		c4.267,0,7.727,3.459,7.727,7.727C267.438,425.289,263.978,428.748,259.711,428.748z"/>
</g>
<path style="fill:#7C7A7A;" d="M302.655,225.64c-116.463,0-198.539,0-315.845,0c-7.206,0-13.101,5.896-13.101,13.101v49.992h342.047
	V238.74C315.756,231.535,309.861,225.64,302.655,225.64z"/>
<path style="fill:#666666;" d="M5.055,238.74c0-7.204,5.894-13.099,13.098-13.101c-10.19,0-20.616,0-31.344,0
	c-7.206,0-13.101,5.896-13.101,13.101v49.992H5.055V238.74z"/>
<path style="fill:#FF5050;" d="M350.082,184.35h-48.216c-2.685,0-5.259,1.066-7.157,2.965l-34.094,34.094
	c-1.899,1.898-2.965,4.473-2.965,7.158v48.217c0,2.685,1.066,5.259,2.965,7.157l34.094,34.094c1.898,1.898,4.473,2.965,7.157,2.965
	h48.217c2.685,0,5.259-1.066,7.157-2.965l34.094-34.094c1.898-1.898,2.965-4.473,2.965-7.157v-48.217
	c0-2.685-1.066-5.259-2.965-7.157l-34.094-34.094C355.341,185.416,352.767,184.35,350.082,184.35z"/>
<path style="fill:#C84146;" d="M282.954,285.572c0-45.862,28.387-85.069,68.538-101.082c-0.467-0.066-0.933-0.139-1.41-0.139
	h-48.216c-2.685,0-5.259,1.066-7.157,2.965l-34.094,34.094c-1.898,1.898-2.965,4.473-2.965,7.158v48.217
	c0,2.685,1.067,5.259,2.965,7.157l24.849,24.849C283.835,301.305,282.954,293.543,282.954,285.572z"/>
<g>
	<path style="fill:#FFFFFF;" d="M323.443,234.328h-20.244c-1.747,0-3.163,1.416-3.163,3.163c0,1.747,1.416,3.163,3.163,3.163h6.959
		v27.203c0,1.747,1.416,3.163,3.163,3.163c1.747,0,3.163-1.416,3.163-3.163v-27.203h6.959c1.747,0,3.163-1.416,3.163-3.163
		C326.606,235.745,325.19,234.328,323.443,234.328z"/>
	<path style="fill:#FFFFFF;" d="M341.157,234.328c-7.325,0-13.285,5.959-13.285,13.285v10.122c0,7.326,5.961,13.285,13.285,13.285
		c7.325,0,13.285-5.959,13.285-13.285v-10.122C354.442,240.288,348.482,234.328,341.157,234.328z M348.116,257.736
		c0,3.838-3.121,6.959-6.959,6.959c-3.838,0-6.959-3.121-6.959-6.959v-10.122c0-3.838,3.121-6.959,6.959-6.959
		c3.838,0,6.959,3.121,6.959,6.959V257.736z"/>
	<path style="fill:#FFFFFF;" d="M370.258,234.328h-8.857c-1.747,0-3.163,1.416-3.163,3.163v30.367c0,1.747,1.416,3.163,3.163,3.163
		c1.747,0,3.163-1.416,3.163-3.163v-9.49h5.694c6.628,0,12.02-5.392,12.02-12.02S376.886,234.328,370.258,234.328z M370.258,252.042
		h-5.694v-11.387h5.694c3.138,0,5.694,2.554,5.694,5.694C375.952,249.488,373.397,252.042,370.258,252.042z"/>
	<path style="fill:#FFFFFF;" d="M286.75,240.655c3.356,0,5.694,1.834,5.694,3.48c0,1.747,1.416,3.163,3.163,3.163
		c1.747,0,3.163-1.416,3.163-3.163c0-5.499-5.281-9.806-12.02-9.806s-12.02,4.307-12.02,9.806c0,7.605,6.858,10.055,10.955,11.52
		c5.783,2.065,6.759,3.384,6.759,5.561c0,1.646-2.338,3.48-5.694,3.48c-3.356,0-5.694-1.834-5.694-3.48
		c0-1.747-1.416-3.163-3.163-3.163s-3.163,1.416-3.163,3.163c0,5.499,5.281,9.806,12.02,9.806s12.02-4.307,12.02-9.806
		c0-7.605-6.858-10.055-10.955-11.52c-5.783-2.065-6.759-3.384-6.759-5.562C281.057,242.488,283.394,240.655,286.75,240.655z"/>
</g>
</svg>
