<?xml version="1.0" encoding="utf-8"?>
<!-- Generator: Adobe Illustrator 21.0.0, SVG Export Plug-In . SVG Version: 6.00 Build 0)  -->
<svg version="1.1" id="Слой_1" xmlns="http://www.w3.org/2000/svg" xmlns:xlink="http://www.w3.org/1999/xlink" x="0px" y="0px"
	 viewBox="0 0 512 512" style="enable-background:new 0 0 512 512;" xml:space="preserve">
<style type="text/css">
	.st0{fill:#91CBE8;}
	.st1{fill:#6AA9CC;}
	.st2{fill:#FF5050;}
	.st3{fill:#C84146;}
	.st4{fill:#FFFFFF;}
</style>
<path class="st0" d="M500,197.7l-39.4-8.6c-3.4-10.5-7.7-20.7-12.7-30.5l21.8-33.9c3.9-6.1,3-14-2.1-19.1l-61.3-61.3
	c-5.1-5.1-13-5.9-19.1-2.1l-33.9,21.8c-9.8-5-20.1-9.2-30.5-12.7L314.3,12c-1.5-7-7.8-12-14.9-12h-86.7c-7.2,0-13.4,5-14.9,12
	l-8.6,39.4c-10.5,3.4-20.7,7.7-30.5,12.7l-33.9-21.8c-6.1-3.9-14-3-19.1,2.1l-61.3,61.3c-5.1,5.1-5.9,13-2.1,19.1l21.8,33.9
	c-5,9.8-9.2,20.1-12.7,30.5L12,197.7c-7,1.5-12,7.8-12,14.9v86.7c0,7.2,5,13.4,12,14.9l39.4,8.6c3.4,10.5,7.7,20.7,12.7,30.5
	l-21.8,33.9c-3.9,6.1-3,14,2.1,19.1l61.3,61.3c5.1,5.1,13,5.9,19.1,2.1l33.9-21.8c9.8,5,20.1,9.2,30.5,12.7l8.6,39.4
	c1.5,7,7.8,12,14.9,12h86.7c7.2,0,13.4-5,14.9-12l8.6-39.4c10.5-3.4,20.7-7.7,30.5-12.7l33.9,21.8c6.1,3.9,14,3,19.1-2.1l61.3-61.3
	c5.1-5.1,5.9-13,2.1-19.1l-21.8-33.9c5-9.8,9.2-20.1,12.7-30.5l39.4-8.6c7-1.5,12-7.8,12-14.9v-86.7C512,205.5,507,199.2,500,197.7z
	 M256,378.4c-67.5,0-122.4-54.9-122.4-122.4S188.5,133.6,256,133.6S378.4,188.5,378.4,256S323.5,378.4,256,378.4z"/>
<path class="st1" d="M500,197.7l-39.4-8.6c-3.4-10.5-7.7-20.7-12.7-30.5l21.8-33.9c3.9-6.1,3-14-2.1-19.1l-61.3-61.3
	c-5.1-5.1-13-5.9-19.1-2.1l-33.9,21.8c-9.8-5-20.1-9.2-30.5-12.7L314.3,12c-1.5-7-7.8-12-14.9-12h-45.7v133.6c0.8,0,1.6,0,2.4,0
	c67.5,0,122.4,54.9,122.4,122.4S323.5,378.4,256,378.4c-0.8,0-1.6,0-2.4,0V512h45.7c7.2,0,13.4-5,14.9-12l8.6-39.4
	c10.5-3.4,20.7-7.7,30.5-12.7l33.9,21.8c6.1,3.9,14,3,19.1-2.1l61.3-61.3c5.1-5.1,5.9-13,2.1-19.1l-21.8-33.9
	c5-9.8,9.2-20.1,12.7-30.5l39.4-8.6c7-1.5,12-7.8,12-14.9v-86.7C512,205.5,507,199.2,500,197.7z"/>
<path class="st2" d="M447.3,14h-62.9c-3.5,0-6.9,1.4-9.3,3.9l-44.5,44.5c-2.5,2.5-3.9,5.8-3.9,9.3v62.9c0,3.5,1.4,6.9,3.9,9.3
	l44.5,44.5c2.5,2.5,5.8,3.9,9.3,3.9h62.9c3.5,0,6.9-1.4,9.3-3.9l44.5-44.5c2.5-2.5,3.9-5.8,3.9-9.3V71.7c0-3.5-1.4-6.9-3.9-9.3
	l-44.5-44.5C454.2,15.4,450.8,14,447.3,14z"/>
<path class="st3" d="M359.8,146c0-59.8,37-110.9,89.4-131.8c-0.6-0.1-1.2-0.2-1.8-0.2h-62.9c-3.5,0-6.9,1.4-9.3,3.9l-44.5,44.5
	c-2.5,2.5-3.9,5.8-3.9,9.3v62.9c0,3.5,1.4,6.9,3.9,9.3l32.4,32.4C360.9,166.5,359.8,156.4,359.8,146z"/>
<g>
	<path class="st4" d="M412.6,79.2h-26.4c-2.3,0-4.1,1.8-4.1,4.1c0,2.3,1.8,4.1,4.1,4.1h9.1v35.5c0,2.3,1.8,4.1,4.1,4.1
		c2.3,0,4.1-1.8,4.1-4.1V87.4h9.1c2.3,0,4.1-1.8,4.1-4.1C416.7,81,414.9,79.2,412.6,79.2z"/>
	<path class="st4" d="M435.7,79.2c-9.6,0-17.3,7.8-17.3,17.3v13.2c0,9.6,7.8,17.3,17.3,17.3c9.6,0,17.3-7.8,17.3-17.3V96.5
		C453,86.9,445.3,79.2,435.7,79.2z M444.8,109.7c0,5-4.1,9.1-9.1,9.1s-9.1-4.1-9.1-9.1V96.5c0-5,4.1-9.1,9.1-9.1s9.1,4.1,9.1,9.1
		V109.7z"/>
	<path class="st4" d="M473.6,79.2h-11.6c-2.3,0-4.1,1.8-4.1,4.1v39.6c0,2.3,1.8,4.1,4.1,4.1s4.1-1.8,4.1-4.1v-12.4h7.4
		c8.6,0,15.7-7,15.7-15.7S482.3,79.2,473.6,79.2z M473.6,102.3h-7.4V87.4h7.4c4.1,0,7.4,3.3,7.4,7.4
		C481.1,98.9,477.7,102.3,473.6,102.3z"/>
	<path class="st4" d="M364.7,87.4c4.4,0,7.4,2.4,7.4,4.5c0,2.3,1.8,4.1,4.1,4.1s4.1-1.8,4.1-4.1c0-7.2-6.9-12.8-15.7-12.8
		s-15.7,5.6-15.7,12.8c0,9.9,8.9,13.1,14.3,15c7.5,2.7,8.8,4.4,8.8,7.3c0,2.1-3,4.5-7.4,4.5s-7.4-2.4-7.4-4.5c0-2.3-1.8-4.1-4.1-4.1
		s-4.1,1.8-4.1,4.1c0,7.2,6.9,12.8,15.7,12.8s15.7-5.6,15.7-12.8c0-9.9-8.9-13.1-14.3-15c-7.5-2.7-8.8-4.4-8.8-7.3
		C357.3,89.8,360.4,87.4,364.7,87.4z"/>
</g>
</svg>
