<?xml version="1.0" encoding="iso-8859-1"?>
<!-- Generator: Adobe Illustrator 21.0.0, SVG Export Plug-In . SVG Version: 6.00 Build 0)  -->
<svg version="1.1" xmlns="http://www.w3.org/2000/svg" xmlns:xlink="http://www.w3.org/1999/xlink" x="0px" y="0px"
	 viewBox="-49 141 512 512" style="enable-background:new -49 141 512 512;" xml:space="preserve">
<g id="&#x421;&#x43B;&#x43E;&#x439;_2">
	<circle style="display:none;fill:#F3705A;" cx="241.372" cy="182.789" r="73.047"/>
	<circle style="display:none;fill:#FFFFFF;" cx="241.372" cy="182.789" r="55.516"/>
	<g style="display:none;">
		<path style="display:inline;fill:#415A6B;" d="M264.747,189.607h-23.375c-2.922,0-5.844-2.922-5.844-5.844v-38.959
			c0-2.922,2.922-5.844,5.844-5.844c2.922,0,5.844,2.922,5.844,5.844v32.141h17.531c2.922,0,5.844,2.922,5.844,5.844
			C270.59,186.685,267.669,189.607,264.747,189.607z"/>
		<rect x="297.861" y="391.218" style="display:inline;fill:#415A6B;" width="54.542" height="15.583"/>
		<path style="display:inline;fill:#415A6B;" d="M373.831,427.255L373.831,427.255c0-11.688-9.74-20.453-20.453-20.453h-54.542
			c-11.688,0-20.453,9.74-20.453,20.453l0,0H373.831z"/>
	</g>
	<path style="fill:#55C0EB;" d="M220.918,424.333H-16.729l6.818-30.193c2.922-15.583,13.636-28.245,28.245-34.089l38.959-15.583
		l44.802,13.635l44.802-13.635l38.959,15.583c14.609,5.844,25.323,18.505,28.245,34.089L220.918,424.333z"/>
	<polygon style="fill:#CED6E0;" points="128.392,424.333 129.366,350.311 102.095,359.077 74.824,350.311 75.798,424.333 	"/>
	<polygon style="fill:#F3705A;" points="79.693,424.333 124.496,424.333 109.886,383.426 117.678,373.687 102.095,359.077 
		86.511,373.687 94.303,383.426 	"/>
	<path style="fill:#E8EAE9;" d="M102.095,358.103c0,0,27.271-17.531,29.219-32.141l10.714,17.531L122.548,384.4L102.095,358.103z"/>
	<polygon style="fill:#8AD7F8;" points="135.209,424.333 163.454,375.634 147.871,367.843 163.454,360.051 137.157,334.728 
		115.73,424.333 	"/>
	<path style="fill:#E8EAE9;" d="M102.095,358.103c0,0-27.271-17.531-29.219-32.141l-9.74,17.531L82.615,384.4L102.095,358.103z"/>
	<polygon style="fill:#8AD7F8;" points="40.735,375.634 68.98,424.333 88.459,424.333 67.032,334.728 40.735,360.051 
		57.292,367.843 	"/>
	<path style="fill:#F7B64C;" d="M72.876,306.483v18.505c1.948,15.583,29.219,32.141,29.219,32.141s27.271-17.531,29.219-32.141
		v-18.505H72.876z"/>
	<g>
		<path style="fill:#415A6B;" d="M102.095,263.629c0,24.349-10.714,43.828-23.375,43.828s-24.349-19.479-25.323-43.828
			c-0.974-25.323,9.74-47.724,23.375-47.724S102.095,238.305,102.095,263.629z"/>
		<path style="fill:#415A6B;" d="M153.715,258.759c-0.974,27.271-21.427,47.724-44.802,47.724s-42.854-21.427-43.828-47.724
			c-0.974-28.245,19.479-52.594,44.802-52.594C135.209,206.165,155.663,230.514,153.715,258.759z"/>
	</g>
	<g>
		<path style="fill:#FFD15C;" d="M145.923,260.707c-20.453-1.948-40.907-8.766-57.464-20.453
			c-7.792,12.662-17.531,23.375-30.193,29.219c0,3.896-0.974,6.818,0,10.714c0.974,32.141,21.427,56.49,44.802,56.49
			s43.828-24.349,44.802-56.49C147.871,273.368,146.897,267.524,145.923,260.707z"/>
		<path style="fill:#FFD15C;" d="M153.715,286.03c-1.948,8.766-8.766,15.583-13.635,14.609s-6.818-8.766-4.87-17.531
			c1.948-8.766,8.766-15.583,13.635-14.609C154.689,269.472,156.637,277.264,153.715,286.03z"/>
		<path style="fill:#FFD15C;" d="M50.475,286.03c1.948,8.766,8.766,15.583,13.636,14.609s6.818-8.766,4.87-17.531
			c-1.948-8.766-8.766-15.583-13.635-14.609S47.553,277.264,50.475,286.03z"/>
		<rect x="-44" y="424.333" style="fill:#FFD15C;" width="467.503" height="41.88"/>
	</g>
	<rect x="-5.041" y="467.187" style="fill:#F7B64C;" width="389.586" height="110.058"/>
	<path style="fill:#415A6B;" d="M399.154,262.655H251.111c-5.844,0-9.74,3.896-9.74,9.74v109.084c0,5.844,3.896,9.74,9.74,9.74
		h149.017c5.844,0,9.74-3.896,9.74-9.74V272.394C408.893,266.55,404.998,262.655,399.154,262.655z"/>
</g>
<g id="Capa_1">
	<g style="display:none;">
		<path style="display:inline;fill:#CE9965;" d="M352.394,265.017H27.616c-29.259,0-52.976,23.708-52.976,52.938v70.631
			l44.417,15.344C60.142,418.105,96,424.417,138.032,427.787v-58.815h103.955v58.703c40.286-3.769,80.201-10.406,118.928-23.745
			l44.417-15.344v-70.631C405.332,288.725,381.625,265.017,352.394,265.017L352.394,265.017z M352.394,265.017"/>
		<path style="display:inline;fill:#986C48;" d="M241.987,427.676v-58.703H138.032v58.815c-42.032-3.37-77.89-9.682-118.975-23.857
			l-44.417-15.344l7.435,2.581v206.314c0,9.143,7.398,16.532,16.532,16.532h382.757c9.143,0,16.579-7.389,16.579-16.532V391.167
			l7.389-2.581l-44.417,15.344C322.188,417.27,282.273,423.907,241.987,427.676L241.987,427.676z M241.987,427.676"/>
		<rect x="93.466" y="242.711" style="display:inline;fill:#FFD16C;" width="59.39" height="22.297"/>
		<rect x="227.116" y="242.711" style="display:inline;fill:#FFD16C;" width="59.427" height="22.297"/>
		<path style="display:inline;fill:#604530;" d="M241.987,223.747v18.964h29.695v-15.66c0-24.153-19.577-43.73-43.73-43.73H152.02
			c-24.144,0-43.73,19.577-43.73,43.73v15.66h29.741v-18.964c0-8.262,8.373-13.887,16.022-10.731c23.03,9.543,48.882,9.543,71.903,0
			C233.577,209.86,241.987,215.485,241.987,223.747L241.987,223.747z M241.987,223.747"/>
		<rect x="286.553" y="547.189" style="display:inline;fill:#FFD16C;" width="74.261" height="29.695"/>
		<path style="display:inline;fill:#604530;" d="M197.422,502.623h-14.871l-22.259-22.26v-22.26h59.39v22.26L197.422,502.623z
			 M197.422,502.623"/>
		<rect x="160.291" y="265.017" style="display:inline;fill:#604530;" width="59.39" height="103.955"/>
		<rect x="138.032" y="368.973" style="display:inline;fill:#FFD16C;" width="103.955" height="89.131"/>
		<rect x="160.291" y="368.973" style="display:inline;fill:#604530;" width="59.39" height="66.825"/>
		<path style="display:inline;fill:#CBB292;" d="M189.986,443.233c-4.094,0-7.435-3.333-7.435-7.436v-29.695
			c0-4.093,3.342-7.435,7.435-7.435c4.103,0,7.436,3.342,7.436,7.435v29.695C197.422,439.901,194.089,443.233,189.986,443.233
			L189.986,443.233z M189.986,443.233"/>
	</g>
	<path style="display:none;fill:#E5E1DA;" d="M362.599,189.318l-99.428,26.642l52.965,3.091c7.206,0,13.101,5.896,13.101,13.101
		c0,169.424,0,241.6,0,338.465c19.016-17.086,19.752-20.435,26.241-21.192c2.012-0.315,4.107-0.168,6.12,0.502l25.548,8.499
		c1.534,0.51,3.139,0.548,4.646,0.189c1.484-0.442,2.854-1.278,3.925-2.485l17.876-20.135c3.46-3.896,8.908-5.356,13.852-3.712
		c26.036,8.343,25.904,9.335,29.417,8.837C447.53,506.285,414.455,382.847,362.599,189.318z"/>
	<path style="display:none;fill:#DBD7D1;" d="M350.574,215.961c-31.155,0-59.836,0-87.402,0h-0.001l52.965,3.091
		c7.206,0,13.101,5.896,13.101,13.101c0,169.424,0,241.6,0,338.465c19.016-17.086,19.752-20.435,26.241-21.192
		c2.012-0.315,4.107-0.168,6.12,0.502l2.076,0.69c0-94.767,0-218.58,0-271.563v-49.993
		C363.674,221.856,357.779,215.961,350.574,215.961z"/>
	<path style="display:none;fill:#666666;" d="M262.141,218.021l100.458-28.703L349.66,141.03
		c-1.865-6.959-9.085-11.129-16.045-9.263c-80.973,21.696-303.471,80.248-310.912,86.254
		C29.235,218.021,255.765,218.021,262.141,218.021z"/>
	<path style="display:none;fill:#F9F6ED;" d="M-9.719,275.963c0,115.199,0,206.181,0,321.825l0,0c0,6.361,0,37.538,0,45.516
		c1.329,0.064,3.128-0.381,4.624-1.367c22.223-14.519,21.578-14.532,24.203-15.561c4.079-2.14,9.039-1.931,12.94,0.642
		c22.695,14.466,22.79,16.186,27.061,16.304c4.269-0.116,4.368-1.839,27.069-16.305c2.669-1.76,5.835-2.416,8.874-1.97
		c5.438,0.582,6.803,3.253,28.261,16.89c2.7,1.779,6.005,1.833,8.786,0c25.021-16.457,24.318-16.621,28.814-16.939
		c2.871-0.299,5.819,0.364,8.33,2.02c22.686,14.461,22.79,16.186,27.061,16.304c4.27-0.117,4.367-1.839,27.069-16.305
		c4.664-3.075,10.633-2.554,14.656,0.099c22.524,14.351,22.645,16.088,26.918,16.206c4.267-0.118,4.375-1.844,26.914-16.206
		c4.35-2.868,9.991-2.868,14.34,0c22.99,14.797,22.605,15.721,26.128,16.149c0-78.363,0-293.359,0-367.302H-9.719z"/>
	<circle style="display:none;fill:#F94A46;" cx="50.254" cy="342.755" r="16.216"/>
	<path style="display:none;fill:#EA3B3B;" d="M50.251,342.754c-2.999-5.195-2.784-11.353,0.007-16.203
		c-2.759-0.004-5.554,0.681-8.115,2.16c-7.756,4.478-10.413,14.395-5.935,22.151c4.478,7.756,14.395,10.413,22.151,5.935
		c2.561-1.478,4.552-3.557,5.928-5.948C58.691,350.842,53.25,347.949,50.251,342.754z"/>
	<circle style="display:none;fill:#FFB70D;" cx="50.254" cy="412.027" r="16.216"/>
	<path style="display:none;fill:#F99F10;" d="M50.251,412.03c-2.999-5.195-2.784-11.353,0.007-16.203
		c-2.759-0.004-5.554,0.681-8.115,2.16c-7.756,4.478-10.413,14.395-5.935,22.151c4.478,7.756,14.395,10.413,22.151,5.935
		c2.561-1.478,4.552-3.557,5.928-5.948C58.691,420.117,53.25,417.224,50.251,412.03z"/>
	<circle style="display:none;fill:#92B620;" cx="50.254" cy="481.308" r="16.216"/>
	<path style="display:none;fill:#81AA04;" d="M50.251,481.304c-2.999-5.195-2.784-11.353,0.007-16.203
		c-2.759-0.004-5.554,0.681-8.115,2.16c-7.756,4.478-10.413,14.395-5.935,22.151c4.478,7.756,14.395,10.413,22.151,5.935
		c2.561-1.478,4.552-3.557,5.928-5.948C58.691,489.391,53.25,486.499,50.251,481.304z"/>
	<path style="display:none;fill:#52A5D8;" d="M50.251,550.579c-2.999-5.195-2.784-11.353,0.007-16.203
		c-2.759-0.004-5.554,0.681-8.115,2.16c-7.756,4.478-10.413,14.395-5.935,22.151c4.478,7.756,14.395,10.413,22.151,5.935
		c2.561-1.478,4.552-3.557,5.928-5.948C58.691,558.667,53.25,555.775,50.251,550.579z"/>
	<path style="display:none;fill:#EFECE4;" d="M21.627,597.788c0-115.644,0-206.626,0-321.825l0,0H-9.719
		c0,115.199,0,206.181,0,321.825c0,6.361,0,37.538,0,45.516c1.329,0.064,3.128-0.381,4.624-1.367
		c22.223-14.519,21.578-14.532,24.203-15.561c0.808-0.424,1.657-0.729,2.519-0.968C21.627,614.16,21.627,601.575,21.627,597.788z"/>
	<g style="display:none;">
		<path style="display:inline;fill:#E2D9C7;" d="M276.283,349.451H103.202c-4.267,0-7.727-3.459-7.727-7.727
			s3.459-7.727,7.727-7.727h173.081c4.267,0,7.727,3.459,7.727,7.727C284.009,345.991,280.55,349.451,276.283,349.451z"/>
		<path style="display:inline;fill:#E2D9C7;" d="M276.283,558.307H103.202c-4.267,0-7.727-3.459-7.727-7.727
			s3.459-7.727,7.727-7.727h173.081c4.267,0,7.727,3.459,7.727,7.727S280.55,558.307,276.283,558.307z"/>
		<path style="display:inline;fill:#E2D9C7;" d="M276.283,488.688H103.202c-4.267,0-7.727-3.459-7.727-7.727
			s3.459-7.727,7.727-7.727h173.081c4.267,0,7.727,3.459,7.727,7.727S280.55,488.688,276.283,488.688z"/>
		<path style="display:inline;fill:#E2D9C7;" d="M276.283,419.069H103.202c-4.267,0-7.727-3.459-7.727-7.727
			s3.459-7.727,7.727-7.727h173.081c4.267,0,7.727,3.459,7.727,7.727S280.55,419.069,276.283,419.069z"/>
	</g>
	<path style="display:none;fill:#7C7A7A;" d="M319.227,215.961c-116.463,0-198.539,0-315.845,0c-7.206,0-13.101,5.896-13.101,13.101
		v49.992h342.047v-49.993C332.328,221.856,326.433,215.961,319.227,215.961z"/>
	<path style="display:none;fill:#666666;" d="M21.627,229.061c0-7.204,5.894-13.099,13.098-13.101c-10.19,0-20.616,0-31.344,0
		c-7.206,0-13.101,5.896-13.101,13.101v49.992h31.347V229.061z"/>
	<g style="display:none;">
		<path style="display:inline;fill:#EDEADA;" d="M386.831,274.834L275.318,163.321H28.367v462h358.464V274.834z M386.831,274.834"/>
		<path style="display:inline;fill:#CEC9AE;" d="M275.318,163.321v111.512h111.512L275.318,163.321z M275.318,163.321"/>
		<path style="display:inline;fill:#CEC9AE;" d="M243.465,434.151H108.026c-4.391,0-7.976,3.585-7.976,7.976
			c0,4.391,3.584,7.975,7.976,7.975h135.439c4.391,0,7.926-3.585,7.926-7.975C251.391,437.735,247.856,434.151,243.465,434.151
			L243.465,434.151z M243.465,434.151"/>
		<path style="display:inline;fill:#CEC9AE;" d="M331.049,402.297c0-4.391-3.535-7.975-7.926-7.975h-55.781
			c-4.391,0-7.976,3.584-7.976,7.975c0,4.391,3.585,7.976,7.976,7.976h55.781C327.515,410.273,331.049,406.688,331.049,402.297
			L331.049,402.297z M331.049,402.297"/>
		<path style="display:inline;fill:#CEC9AE;" d="M147.855,410.273h79.659c4.391,0,7.975-3.585,7.975-7.976
			c0-4.391-3.584-7.975-7.975-7.975h-79.659c-4.391,0-7.976,3.584-7.976,7.975C139.879,406.688,143.464,410.273,147.855,410.273
			L147.855,410.273z M147.855,410.273"/>
		<path style="display:inline;fill:#CEC9AE;" d="M108.026,410.273c2.14,0,4.122-0.896,5.636-2.34c1.444-1.513,2.34-3.575,2.34-5.636
			c0-2.061-0.896-4.162-2.34-5.636c-2.917-2.958-8.434-2.878-11.272,0c-1.444,1.474-2.34,3.575-2.34,5.636
			c0,2.061,0.896,4.123,2.34,5.566C103.784,409.377,105.884,410.273,108.026,410.273L108.026,410.273z M108.026,410.273"/>
		<path style="display:inline;fill:#CEC9AE;" d="M277.608,436.49c-1.434,1.474-2.29,3.456-2.29,5.636c0,2.14,0.777,4.122,2.29,5.636
			c1.524,1.444,3.585,2.34,5.686,2.34c2.061,0,4.122-0.896,5.636-2.34c1.513-1.514,2.29-3.495,2.29-5.636
			c0-2.061-0.857-4.162-2.29-5.636C285.893,433.533,280.646,433.533,277.608,436.49L277.608,436.49z M277.608,436.49"/>
		<path style="display:inline;fill:#CEC9AE;" d="M317.438,436.49c-1.434,1.474-2.29,3.456-2.29,5.636c0,2.14,0.776,4.122,2.29,5.636
			c1.523,1.444,3.585,2.34,5.685,2.34c2.061,0,4.122-0.896,5.636-2.41c1.514-1.523,2.29-3.505,2.29-5.566
			c0-2.061-0.856-4.162-2.29-5.636C325.723,433.533,320.475,433.533,317.438,436.49L317.438,436.49z M317.438,436.49"/>
		<path style="display:inline;fill:#7383BF;" d="M152.056,475.304c-17.465,9.101-23.34,26.447-25.481,44.459
			c-3.306-2.758-6.611-5.526-9.877-8.284c-7.817-6.532-19.178,4.67-11.282,11.282c7.468,6.263,14.896,12.487,22.364,18.74
			c5.258,4.401,13.343,1.673,13.582-5.636c0.578-17.266,1.434-37.768,18.71-46.79C169.213,484.325,161.118,470.594,152.056,475.304
			L152.056,475.304z M152.056,475.304"/>
		<path style="display:inline;fill:#7383BF;" d="M274.223,515.791c-3.375-4.59-6.841-8.434-12.984-8.902
			c-11.63-0.896-31.545,15.712-39.79,1.045c-2.101-3.734-7.239-5.088-10.893-2.878c-11.282,6.93-26.019,16.888-37.888,4.013
			c-6.96-7.588-18.202,3.694-11.282,11.242c14.936,16.21,34.154,11.232,51.071,2.061c3.545,3.844,7.817,6.453,13.502,8.514
			c7.229,2.609,32.551-9.728,34.502-7.04C266.447,532.051,280.297,524.115,274.223,515.791L274.223,515.791z M274.223,515.791"/>
		<path style="display:inline;fill:#CEC9AE;" d="M184.458,331.351l-20.034-10.226c-1.364-0.707-2.221-2.101-2.221-3.664v-6.104
			c10.276-4.431,16.181-13.025,19.058-23.768c4.321-1.355,7.508-5.367,7.508-10.107v-5.287c0-4.092-2.33-7.587-5.716-9.379
			c-2.33-19.955-15.553-28.04-36.752-28.04c-1.016,0-2.021,0.04-2.957,0.11c-7.239,0.588-14.508-0.777-20.502-4.819
			c-2.529-1.673-4.63-3.465-6.104-5.327c-0.657-0.857-2.021-0.309-1.862,0.737c0.189,1.872,0.498,4.042,0.966,6.422
			c1.753,8.822,0.737,7.507-2.679,15.832c-1.911,4.62-3.116,9.718-3.664,15.125c-3.375,1.792-5.715,5.287-5.715,9.34v5.287
			c0,4.78,3.196,8.793,7.548,10.107c2.838,10.743,8.752,19.337,19.019,23.768v6.074c0,1.553-0.896,2.987-2.29,3.694l-20.502,10.067
			c-3.465,1.912-5.984,4.939-7.507,8.444c13.034,9.34,28.976,14.856,46.212,14.856c17.186,0,33.058-5.486,46.092-14.737
			C190.721,336.21,188.072,333.143,184.458,331.351L184.458,331.351z M184.458,331.351"/>
	</g>
	<path style="fill:#FF5050;" d="M402.879,224.016h-48.216c-2.685,0-5.259,1.066-7.157,2.965l-34.094,34.094
		c-1.899,1.898-2.965,4.473-2.965,7.158v48.217c0,2.685,1.066,5.259,2.965,7.157l34.094,34.094c1.898,1.898,4.473,2.965,7.157,2.965
		h48.217c2.685,0,5.259-1.066,7.157-2.965l34.094-34.094c1.898-1.898,2.965-4.473,2.965-7.157v-48.217
		c0-2.685-1.066-5.259-2.965-7.157l-34.094-34.094C408.138,225.083,405.563,224.016,402.879,224.016z"/>
	<path style="fill:#C84146;" d="M335.751,325.238c0-45.862,28.387-85.069,68.538-101.082c-0.467-0.066-0.933-0.139-1.41-0.139
		h-48.216c-2.685,0-5.259,1.066-7.157,2.965l-34.094,34.094c-1.898,1.898-2.965,4.473-2.965,7.158v48.217
		c0,2.685,1.067,5.259,2.965,7.157l24.849,24.849C336.632,340.971,335.751,333.209,335.751,325.238z"/>
	<g>
		<path style="fill:#FFFFFF;" d="M376.24,273.995h-20.244c-1.747,0-3.163,1.416-3.163,3.163c0,1.747,1.416,3.163,3.163,3.163h6.959
			v27.203c0,1.747,1.416,3.163,3.163,3.163c1.747,0,3.163-1.416,3.163-3.163v-27.203h6.959c1.747,0,3.163-1.416,3.163-3.163
			C379.403,275.411,377.987,273.995,376.24,273.995z"/>
		<path style="fill:#FFFFFF;" d="M393.954,273.995c-7.325,0-13.285,5.959-13.285,13.285v10.122c0,7.326,5.961,13.285,13.285,13.285
			s13.285-5.959,13.285-13.285V287.28C407.239,279.954,401.278,273.995,393.954,273.995z M400.913,297.402
			c0,3.838-3.121,6.959-6.959,6.959s-6.959-3.121-6.959-6.959V287.28c0-3.838,3.121-6.959,6.959-6.959s6.959,3.121,6.959,6.959
			V297.402z"/>
		<path style="fill:#FFFFFF;" d="M423.055,273.995h-8.857c-1.747,0-3.163,1.416-3.163,3.163v30.367c0,1.747,1.416,3.163,3.163,3.163
			c1.747,0,3.163-1.416,3.163-3.163v-9.49h5.694c6.628,0,12.02-5.392,12.02-12.02C435.075,279.387,429.683,273.995,423.055,273.995z
			 M423.055,291.708h-5.694v-11.387h5.694c3.139,0,5.694,2.554,5.694,5.694C428.749,289.154,426.194,291.708,423.055,291.708z"/>
		<path style="fill:#FFFFFF;" d="M339.547,280.321c3.356,0,5.694,1.834,5.694,3.48c0,1.747,1.416,3.163,3.163,3.163
			s3.163-1.416,3.163-3.163c0-5.499-5.281-9.806-12.02-9.806s-12.02,4.307-12.02,9.806c0,7.605,6.858,10.055,10.955,11.52
			c5.783,2.065,6.759,3.384,6.759,5.561c0,1.646-2.338,3.48-5.694,3.48c-3.356,0-5.694-1.834-5.694-3.48
			c0-1.747-1.416-3.163-3.163-3.163c-1.747,0-3.163,1.416-3.163,3.163c0,5.499,5.281,9.806,12.02,9.806s12.02-4.307,12.02-9.806
			c0-7.605-6.858-10.055-10.955-11.52c-5.783-2.065-6.759-3.384-6.759-5.561C333.853,282.155,336.191,280.321,339.547,280.321z"/>
	</g>
</g>
</svg>
