<?xml version="1.0" encoding="iso-8859-1"?>
<!-- Generator: Adobe Illustrator 21.0.0, SVG Export Plug-In . SVG Version: 6.00 Build 0)  -->
<svg version="1.1" id="Capa_1" xmlns="http://www.w3.org/2000/svg" xmlns:xlink="http://www.w3.org/1999/xlink" x="0px" y="0px"
	 viewBox="-49 141 512 512" style="enable-background:new -49 141 512 512;" xml:space="preserve">
<path style="display:none;fill:#E5E1DA;" d="M346.027,198.997l-99.428,26.642l52.965,3.091c7.206,0,13.101,5.896,13.101,13.101
	c0,169.424,0,241.6,0,338.465c19.016-17.086,19.752-20.435,26.24-21.192c2.012-0.315,4.107-0.168,6.12,0.502l25.549,8.499
	c1.534,0.51,3.139,0.548,4.646,0.189c1.484-0.442,2.854-1.278,3.925-2.485l17.876-20.135c3.46-3.896,8.908-5.356,13.852-3.712
	c26.036,8.343,25.904,9.335,29.417,8.837C430.957,515.963,397.883,392.526,346.027,198.997z"/>
<path style="display:none;fill:#DBD7D1;" d="M334.001,225.64c-31.155,0-59.836,0-87.402,0h-0.001l52.965,3.091
	c7.206,0,13.101,5.896,13.101,13.101c0,169.424,0,241.6,0,338.465c19.016-17.086,19.752-20.435,26.24-21.192
	c2.012-0.315,4.107-0.168,6.12,0.502l2.076,0.69c0-94.767,0-218.58,0-271.563V238.74C347.102,231.535,341.207,225.64,334.001,225.64
	z"/>
<path style="display:none;fill:#666666;" d="M245.569,227.7l100.458-28.703l-12.939-48.288c-1.865-6.959-9.085-11.129-16.045-9.263
	C236.07,163.142,13.571,221.694,6.13,227.7C12.663,227.7,239.193,227.7,245.569,227.7z"/>
<path style="display:none;fill:#F9F6ED;" d="M-26.292,285.642c0,115.199,0,206.181,0,321.825l0,0c0,6.361,0,37.538,0,45.516
	c1.329,0.064,3.128-0.381,4.624-1.367c22.223-14.519,21.578-14.532,24.203-15.561c4.079-2.14,9.039-1.931,12.94,0.642
	c22.695,14.466,22.79,16.186,27.061,16.304c4.269-0.116,4.368-1.839,27.069-16.305c2.669-1.76,5.835-2.416,8.874-1.97
	c5.438,0.582,6.803,3.253,28.261,16.89c2.7,1.779,6.005,1.833,8.786,0c25.021-16.457,24.318-16.621,28.814-16.939
	c2.871-0.299,5.819,0.364,8.33,2.02c22.686,14.461,22.79,16.186,27.061,16.304c4.27-0.117,4.367-1.839,27.069-16.305
	c4.664-3.075,10.633-2.554,14.656,0.099c22.524,14.351,22.645,16.088,26.918,16.206c4.267-0.118,4.375-1.844,26.914-16.206
	c4.35-2.868,9.991-2.868,14.34,0c22.99,14.797,22.605,15.721,26.128,16.149c0-78.363,0-293.359,0-367.302H-26.292z"/>
<circle style="display:none;fill:#F94A46;" cx="33.682" cy="352.434" r="16.216"/>
<path style="display:none;fill:#EA3B3B;" d="M33.679,352.433c-2.999-5.195-2.784-11.353,0.007-16.203
	c-2.759-0.004-5.554,0.681-8.115,2.16c-7.756,4.478-10.413,14.395-5.935,22.151c4.478,7.756,14.395,10.413,22.151,5.935
	c2.561-1.478,4.552-3.557,5.928-5.948C42.119,360.52,36.678,357.628,33.679,352.433z"/>
<circle style="display:none;fill:#FFB70D;" cx="33.682" cy="421.706" r="16.216"/>
<path style="display:none;fill:#F99F10;" d="M33.679,421.708c-2.999-5.195-2.784-11.353,0.007-16.203
	c-2.759-0.004-5.554,0.681-8.115,2.16c-7.756,4.478-10.413,14.395-5.935,22.151c4.478,7.756,14.395,10.413,22.151,5.935
	c2.561-1.478,4.552-3.557,5.928-5.948C42.119,429.796,36.678,426.903,33.679,421.708z"/>
<circle style="display:none;fill:#92B620;" cx="33.682" cy="490.987" r="16.216"/>
<path style="display:none;fill:#81AA04;" d="M33.679,490.983c-2.999-5.195-2.784-11.353,0.007-16.203
	c-2.759-0.004-5.554,0.681-8.115,2.16c-7.756,4.478-10.413,14.395-5.935,22.151c4.478,7.756,14.395,10.413,22.151,5.935
	c2.561-1.478,4.552-3.557,5.928-5.948C42.119,499.07,36.678,496.178,33.679,490.983z"/>
<path style="display:none;fill:#52A5D8;" d="M33.679,560.258c-2.999-5.195-2.784-11.353,0.007-16.203
	c-2.759-0.004-5.554,0.681-8.115,2.16c-7.756,4.478-10.413,14.395-5.935,22.151c4.478,7.756,14.395,10.413,22.151,5.935
	c2.561-1.478,4.552-3.557,5.928-5.948C42.119,568.345,36.678,565.453,33.679,560.258z"/>
<path style="display:none;fill:#EFECE4;" d="M5.055,607.467c0-115.644,0-206.626,0-321.825l0,0h-31.347
	c0,115.199,0,206.181,0,321.825c0,6.361,0,37.538,0,45.516c1.329,0.064,3.128-0.381,4.624-1.367
	c22.223-14.519,21.578-14.532,24.203-15.561c0.808-0.424,1.657-0.729,2.519-0.968C5.055,623.838,5.055,611.254,5.055,607.467z"/>
<g style="display:none;">
	<path style="display:inline;fill:#E2D9C7;" d="M259.711,359.129H86.63c-4.267,0-7.727-3.459-7.727-7.727
		c0-4.268,3.459-7.727,7.727-7.727h173.081c4.267,0,7.727,3.459,7.727,7.727C267.437,355.67,263.978,359.129,259.711,359.129z"/>
	<path style="display:inline;fill:#E2D9C7;" d="M259.711,567.985H86.63c-4.267,0-7.727-3.459-7.727-7.727s3.459-7.727,7.727-7.727
		h173.081c4.267,0,7.727,3.459,7.727,7.727S263.978,567.985,259.711,567.985z"/>
	<path style="display:inline;fill:#E2D9C7;" d="M259.711,498.367H86.63c-4.267,0-7.727-3.459-7.727-7.727s3.459-7.727,7.727-7.727
		h173.081c4.267,0,7.727,3.459,7.727,7.727S263.978,498.367,259.711,498.367z"/>
	<path style="display:inline;fill:#E2D9C7;" d="M259.711,428.748H86.63c-4.267,0-7.727-3.459-7.727-7.727
		c0-4.268,3.459-7.727,7.727-7.727h173.081c4.267,0,7.727,3.459,7.727,7.727C267.438,425.289,263.978,428.748,259.711,428.748z"/>
</g>
<path style="display:none;fill:#7C7A7A;" d="M302.655,225.64c-116.463,0-198.539,0-315.845,0c-7.206,0-13.101,5.896-13.101,13.101
	v49.992h342.047V238.74C315.756,231.535,309.861,225.64,302.655,225.64z"/>
<path style="display:none;fill:#666666;" d="M5.055,238.74c0-7.204,5.894-13.099,13.098-13.101c-10.19,0-20.616,0-31.344,0
	c-7.206,0-13.101,5.896-13.101,13.101v49.992H5.055V238.74z"/>
<g>
	<path style="fill:#EDEADA;" d="M370.258,284.512L258.746,173H11.795v462h358.464V284.512z M370.258,284.512"/>
	<path style="fill:#CEC9AE;" d="M258.746,173v111.512h111.512L258.746,173z M258.746,173"/>
	<path style="fill:#CEC9AE;" d="M226.893,443.829H91.453c-4.391,0-7.976,3.585-7.976,7.976c0,4.391,3.584,7.975,7.976,7.975h135.439
		c4.391,0,7.926-3.585,7.926-7.975C234.819,447.414,231.284,443.829,226.893,443.829L226.893,443.829z M226.893,443.829"/>
	<path style="fill:#CEC9AE;" d="M314.477,411.976c0-4.391-3.535-7.975-7.926-7.975H250.77c-4.391,0-7.976,3.585-7.976,7.975
		c0,4.391,3.585,7.976,7.976,7.976h55.781C310.943,419.952,314.477,416.367,314.477,411.976L314.477,411.976z M314.477,411.976"/>
	<path style="fill:#CEC9AE;" d="M131.283,419.952h79.659c4.391,0,7.975-3.585,7.975-7.976c0-4.391-3.584-7.975-7.975-7.975h-79.659
		c-4.391,0-7.976,3.585-7.976,7.975C123.306,416.367,126.891,419.952,131.283,419.952L131.283,419.952z M131.283,419.952"/>
	<path style="fill:#CEC9AE;" d="M91.453,419.952c2.14,0,4.122-0.896,5.636-2.34c1.444-1.513,2.34-3.575,2.34-5.636
		c0-2.061-0.896-4.162-2.34-5.636c-2.917-2.958-8.434-2.878-11.272,0c-1.444,1.474-2.34,3.575-2.34,5.636
		c0,2.061,0.896,4.123,2.34,5.566C87.211,419.055,89.312,419.952,91.453,419.952L91.453,419.952z M91.453,419.952"/>
	<path style="fill:#CEC9AE;" d="M261.036,446.169c-1.434,1.474-2.29,3.456-2.29,5.636c0,2.141,0.777,4.122,2.29,5.636
		c1.524,1.444,3.585,2.34,5.686,2.34c2.061,0,4.122-0.896,5.636-2.34c1.513-1.514,2.29-3.495,2.29-5.636
		c0-2.061-0.857-4.162-2.29-5.636C269.321,443.212,264.073,443.212,261.036,446.169L261.036,446.169z M261.036,446.169"/>
	<path style="fill:#CEC9AE;" d="M300.866,446.169c-1.434,1.474-2.29,3.456-2.29,5.636c0,2.141,0.776,4.122,2.29,5.636
		c1.523,1.444,3.585,2.34,5.685,2.34c2.061,0,4.122-0.896,5.636-2.41c1.514-1.523,2.29-3.505,2.29-5.566
		c0-2.061-0.856-4.162-2.29-5.636C309.15,443.212,303.902,443.212,300.866,446.169L300.866,446.169z M300.866,446.169"/>
	<path style="fill:#7383BF;" d="M135.484,484.983c-17.465,9.101-23.34,26.447-25.481,44.459c-3.306-2.758-6.611-5.526-9.877-8.284
		c-7.817-6.532-19.178,4.67-11.282,11.282c7.468,6.263,14.896,12.487,22.364,18.74c5.258,4.401,13.343,1.673,13.582-5.636
		c0.578-17.266,1.434-37.768,18.71-46.79C152.641,494.004,144.546,480.273,135.484,484.983L135.484,484.983z M135.484,484.983"/>
	<path style="fill:#7383BF;" d="M257.651,525.469c-3.375-4.59-6.841-8.434-12.984-8.902c-11.63-0.896-31.545,15.712-39.79,1.045
		c-2.101-3.734-7.239-5.088-10.893-2.878c-11.282,6.93-26.019,16.888-37.888,4.013c-6.96-7.588-18.202,3.694-11.282,11.242
		c14.936,16.21,34.154,11.232,51.071,2.061c3.545,3.844,7.817,6.453,13.502,8.514c7.229,2.609,32.551-9.728,34.502-7.04
		C249.874,541.73,263.725,533.794,257.651,525.469L257.651,525.469z M257.651,525.469"/>
	<path style="fill:#CEC9AE;" d="M167.886,341.03l-20.034-10.226c-1.364-0.707-2.221-2.101-2.221-3.664v-6.104
		c10.276-4.431,16.181-13.025,19.058-23.768c4.321-1.355,7.508-5.367,7.508-10.107v-5.287c0-4.092-2.33-7.587-5.716-9.379
		c-2.33-19.955-15.553-28.04-36.752-28.04c-1.016,0-2.021,0.04-2.957,0.11c-7.239,0.588-14.508-0.777-20.502-4.819
		c-2.529-1.673-4.63-3.465-6.104-5.327c-0.657-0.857-2.021-0.309-1.862,0.737c0.189,1.872,0.498,4.042,0.966,6.422
		c1.753,8.822,0.737,7.507-2.679,15.832c-1.911,4.62-3.116,9.718-3.664,15.125c-3.375,1.792-5.715,5.287-5.715,9.34v5.287
		c0,4.78,3.196,8.793,7.548,10.107c2.838,10.743,8.752,19.337,19.019,23.768v6.074c0,1.553-0.896,2.987-2.29,3.694l-20.502,10.067
		c-3.465,1.912-5.984,4.939-7.507,8.444c13.034,9.34,28.976,14.856,46.212,14.856c17.186,0,33.058-5.486,46.092-14.737
		C174.149,345.889,171.5,342.822,167.886,341.03L167.886,341.03z M167.886,341.03"/>
</g>
<path style="fill:#FF5050;" d="M330.634,508.35h-48.216c-2.685,0-5.259,1.066-7.157,2.965l-34.094,34.094
	c-1.899,1.898-2.965,4.473-2.965,7.158v48.217c0,2.685,1.066,5.259,2.965,7.157l34.094,34.094c1.898,1.898,4.473,2.965,7.157,2.965
	h48.217c2.685,0,5.259-1.066,7.157-2.965l34.094-34.094c1.898-1.898,2.965-4.473,2.965-7.157v-48.217
	c0-2.685-1.066-5.259-2.965-7.157l-34.094-34.094C335.894,509.416,333.319,508.35,330.634,508.35z"/>
<path style="fill:#C84146;" d="M263.507,609.572c0-45.862,28.387-85.069,68.538-101.082c-0.467-0.066-0.933-0.139-1.41-0.139
	h-48.216c-2.685,0-5.259,1.066-7.157,2.965l-34.094,34.094c-1.898,1.898-2.965,4.473-2.965,7.158v48.217
	c0,2.685,1.067,5.259,2.965,7.157l24.849,24.849C264.388,625.305,263.507,617.543,263.507,609.572z"/>
<g>
	<path style="fill:#FFFFFF;" d="M303.996,558.328h-20.244c-1.747,0-3.163,1.416-3.163,3.163c0,1.747,1.416,3.163,3.163,3.163h6.959
		v27.203c0,1.747,1.416,3.163,3.163,3.163c1.747,0,3.163-1.416,3.163-3.163v-27.203h6.959c1.747,0,3.163-1.416,3.163-3.163
		C307.159,559.745,305.743,558.328,303.996,558.328z"/>
	<path style="fill:#FFFFFF;" d="M321.709,558.328c-7.325,0-13.285,5.959-13.285,13.285v10.122c0,7.326,5.961,13.285,13.285,13.285
		s13.285-5.959,13.285-13.285v-10.122C334.995,564.288,329.034,558.328,321.709,558.328z M328.668,581.736
		c0,3.838-3.121,6.959-6.959,6.959s-6.959-3.121-6.959-6.959v-10.122c0-3.838,3.121-6.959,6.959-6.959s6.959,3.121,6.959,6.959
		V581.736z"/>
	<path style="fill:#FFFFFF;" d="M350.811,558.328h-8.857c-1.747,0-3.163,1.416-3.163,3.163v30.367c0,1.747,1.416,3.163,3.163,3.163
		s3.163-1.416,3.163-3.163v-9.49h5.694c6.628,0,12.02-5.392,12.02-12.02C362.831,563.721,357.439,558.328,350.811,558.328z
		 M350.811,576.042h-5.694v-11.387h5.694c3.139,0,5.694,2.554,5.694,5.694S353.949,576.042,350.811,576.042z"/>
	<path style="fill:#FFFFFF;" d="M267.303,564.655c3.356,0,5.694,1.834,5.694,3.479c0,1.747,1.416,3.163,3.163,3.163
		c1.747,0,3.163-1.416,3.163-3.163c0-5.499-5.281-9.806-12.02-9.806s-12.02,4.307-12.02,9.806c0,7.605,6.858,10.055,10.955,11.52
		c5.783,2.065,6.759,3.384,6.759,5.562c0,1.646-2.338,3.479-5.694,3.479s-5.694-1.834-5.694-3.479c0-1.747-1.416-3.163-3.163-3.163
		c-1.747,0-3.163,1.416-3.163,3.163c0,5.499,5.281,9.806,12.02,9.806s12.02-4.307,12.02-9.806c0-7.605-6.858-10.055-10.955-11.52
		c-5.783-2.065-6.759-3.384-6.759-5.562C261.609,566.489,263.947,564.655,267.303,564.655z"/>
</g>
</svg>
